<svg width="616" height="111" viewBox="0 0 616 111" fill="none" xmlns="http://www.w3.org/2000/svg">
<path d="M603.077 97.8955H616V110.819H603.077V97.8955Z" fill="white"/>
<path d="M0 110.492V0.47998H110.03V12.8563H12.3763V49.2213H96.9231V61.7504H12.3763V110.492H0Z" fill="white"/>
<path d="M524.306 110.758V40.6252C524.306 37.2637 525.121 34.2078 526.75 31.4575C528.482 28.6054 530.723 26.3644 533.473 24.7346C536.325 23.0029 539.432 22.1371 542.794 22.1371H592.605V34.6662H542.794C541.164 34.6662 539.738 35.2774 538.516 36.4997C537.395 37.6202 536.835 38.9954 536.835 40.6252V110.758H524.306Z" fill="white"/>
<path d="M433.774 110.758C430.412 110.758 427.305 109.943 424.453 108.313C421.703 106.581 419.462 104.34 417.73 101.59C416.101 98.7379 415.286 95.6311 415.286 92.2696V40.6252C415.286 37.2637 416.101 34.2078 417.73 31.4575C419.462 28.6054 421.703 26.3644 424.453 24.7346C427.305 23.0029 430.412 22.1371 433.774 22.1371H486.946C490.409 22.1371 493.516 23.0029 496.267 24.7346C499.119 26.3644 501.36 28.6054 502.989 31.4575C504.721 34.2078 505.587 37.2637 505.587 40.6252V72.712H427.815V92.2696C427.815 93.8994 428.375 95.3255 429.496 96.5478C430.718 97.6683 432.144 98.2286 433.774 98.2286H505.587V110.758H433.774ZM427.815 60.1828H492.905V40.6252C492.905 38.9954 492.294 37.6202 491.072 36.4997C489.951 35.2774 488.576 34.6662 486.946 34.6662H433.774C432.144 34.6662 430.718 35.2774 429.496 36.4997C428.375 37.6202 427.815 38.9954 427.815 40.6252V60.1828Z" fill="white"/>
<path d="M339.689 110.758L290.795 22.1371H305.463L347.023 98.5342L388.583 22.1371H403.251L354.205 110.758H339.689Z" fill="white"/>
<path d="M253.054 110.758V22.137H265.583V110.758H253.054ZM253.054 13.3891V0.859985H265.583V13.3891H253.054Z" fill="white"/>
<path d="M206.124 110.758C202.763 110.758 199.656 109.943 196.804 108.313C194.054 106.581 191.813 104.34 190.081 101.59C188.451 98.7379 187.636 95.6311 187.636 92.2696V-0.00146484H200.165V92.2696C200.165 93.8994 200.726 95.3255 201.846 96.5479C203.068 97.6684 204.495 98.2286 206.124 98.2286H221.098V110.758H206.124Z" fill="white"/>
<path d="M136.543 110.758V22.137H149.072V110.758H136.543ZM136.543 13.3891V0.859985H149.072V13.3891H136.543Z" fill="white"/>
</svg>
